<?xml version="1.0" standalone="no"?>
<!DOCTYPE svg PUBLIC "-//W3C//DTD SVG 20010904//EN"
 "http://www.w3.org/TR/2001/REC-SVG-20010904/DTD/svg10.dtd">
<svg version="1.0" xmlns="http://www.w3.org/2000/svg"
 width="937.000000pt" height="937.000000pt" viewBox="0 0 937.000000 937.000000"
 preserveAspectRatio="xMidYMid meet">
<metadata>
Created by potrace 1.11, written by Peter Selinger 2001-2013
</metadata>
<g transform="translate(0.000000,937.000000) scale(0.100000,-0.100000)"
fill="#000000" stroke="none">
<path d="M1629 7962 c-20 -10 -105 -76 -190 -148 -84 -71 -165 -138 -178 -149
-13 -11 -29 -25 -35 -30 -6 -6 -51 -45 -101 -86 -49 -41 -101 -84 -115 -96
-14 -12 -104 -87 -200 -168 -190 -159 -326 -274 -344 -290 -6 -6 -67 -57 -136
-114 -185 -154 -210 -178 -226 -224 -19 -54 -9 -119 25 -160 29 -36 152 -176
251 -287 59 -66 166 -187 255 -289 17 -19 37 -42 45 -51 8 -9 44 -50 80 -90
36 -41 72 -82 80 -90 8 -9 28 -32 44 -51 24 -27 134 -152 191 -215 6 -6 37
-42 70 -79 33 -38 65 -73 70 -79 6 -6 44 -49 85 -96 41 -47 91 -102 110 -124
19 -22 44 -49 55 -62 11 -12 31 -35 44 -50 29 -34 164 -187 171 -194 9 -8 171
-191 230 -259 30 -34 64 -73 75 -85 11 -12 49 -55 85 -96 36 -41 124 -139 195
-220 72 -80 155 -174 185 -209 30 -35 69 -78 85 -95 17 -18 57 -64 90 -102 33
-37 98 -111 145 -164 47 -53 112 -126 145 -164 33 -37 69 -78 80 -90 20 -23
120 -135 185 -210 19 -22 42 -47 50 -56 8 -9 42 -47 75 -84 33 -38 65 -74 70
-80 6 -6 46 -51 90 -101 44 -49 82 -92 85 -95 3 -3 36 -41 75 -85 38 -44 72
-82 75 -85 7 -7 139 -156 176 -199 16 -19 34 -39 40 -45 11 -11 227 -255 279
-315 17 -19 37 -42 45 -51 8 -8 44 -49 80 -90 36 -40 72 -81 80 -90 8 -9 46
-52 85 -95 71 -79 116 -108 170 -108 31 0 105 27 115 42 5 9 104 120 150 170
14 15 54 60 90 101 36 40 70 78 75 84 6 6 44 49 85 96 41 47 89 101 107 120
17 19 40 44 50 56 62 71 140 160 153 174 8 9 44 49 80 90 36 41 74 84 85 96
11 12 47 52 80 89 102 116 265 300 300 339 6 6 59 67 120 136 60 69 116 132
124 141 9 8 41 44 71 79 30 35 66 75 80 90 14 15 48 54 77 86 28 33 59 68 70
79 10 11 49 56 88 100 38 44 74 85 80 91 5 6 25 29 44 50 19 21 53 59 75 84
45 50 157 176 188 212 11 13 50 57 88 99 38 41 83 93 102 115 18 22 49 58 69
79 20 22 94 105 165 185 70 80 138 156 150 170 75 83 121 135 137 154 10 11
44 50 75 85 31 35 65 73 75 85 10 12 45 50 76 86 69 77 290 326 381 430 36 40
85 96 110 123 25 27 53 59 63 71 10 11 40 46 67 76 27 30 57 64 67 76 24 28
145 164 158 178 99 107 412 466 430 493 18 25 25 49 25 81 0 89 -16 106 -367
397 -179 149 -330 275 -337 281 -78 72 -748 622 -769 632 -22 9 -679 12 -3085
12 -2935 0 -3059 -1 -3093 -18z m3001 -332 c19 0 29 -9 42 -40 14 -35 90 -102
115 -103 14 0 108 -34 139 -50 62 -32 105 -89 137 -182 17 -47 15 -205 -8
-685 -3 -58 -7 -154 -10 -215 -9 -212 -14 -321 -20 -420 -9 -176 -15 -287 -19
-385 -2 -52 -5 -95 -6 -95 -1 0 -4 -40 -6 -90 -1 -49 -5 -128 -8 -175 -3 -47
-8 -125 -11 -175 -3 -49 -6 -129 -8 -177 -1 -49 -4 -88 -7 -88 -3 0 -6 -30 -7
-68 -3 -102 -10 -237 -13 -237 -1 0 -4 -31 -6 -70 -1 -38 -5 -104 -8 -145 -3
-41 -8 -106 -11 -145 -8 -119 -14 -207 -20 -280 -3 -38 -6 -87 -7 -107 -1 -21
-4 -38 -7 -38 -3 0 -7 -11 -7 -25 -3 -39 -44 -92 -99 -127 -27 -18 -52 -35
-55 -38 -13 -16 -41 -18 -54 -5 -10 11 -13 28 -10 58 3 23 7 92 9 152 3 61 7
162 10 225 10 224 12 625 2 670 -13 62 -45 95 -94 94 -33 -1 -41 -6 -60 -40
-12 -21 -24 -55 -27 -74 -10 -64 -17 -95 -23 -115 -4 -11 -8 -31 -9 -45 -1
-14 -2 -25 -3 -25 -1 0 -4 -16 -7 -35 -2 -19 -6 -48 -8 -65 -2 -16 -7 -52 -10
-80 -6 -50 -13 -90 -16 -90 -1 0 -3 -19 -6 -43 -2 -24 -8 -51 -12 -60 -5 -9
-7 -27 -6 -39 0 -13 -1 -23 -5 -23 -3 0 -7 -16 -8 -35 -4 -54 -60 -212 -94
-264 -58 -88 -151 -132 -272 -127 -117 4 -150 37 -162 161 -2 17 -4 30 -5 30
-1 0 -4 20 -7 45 -5 50 -10 94 -19 155 -6 49 -12 95 -20 155 -3 25 -8 59 -10
75 -2 17 -7 48 -9 70 -10 78 -16 130 -21 165 -3 19 -7 51 -9 70 -10 86 -13
107 -19 130 -3 14 -9 52 -12 85 -3 33 -8 78 -11 100 -3 22 -6 56 -8 75 -2 19
-4 35 -6 35 -1 0 -3 16 -5 35 -4 34 -11 88 -20 160 -7 51 -13 99 -19 145 -3
22 -8 58 -11 80 -3 22 -8 56 -10 75 -3 19 -7 51 -9 70 -3 19 -7 53 -10 75 -3
22 -7 58 -11 80 -3 22 -7 56 -9 75 -2 19 -4 35 -5 35 -2 0 -4 16 -6 35 -10 93
-13 115 -15 115 -1 0 -3 16 -6 35 -11 93 -15 118 -20 155 -3 22 -6 56 -8 75
-2 19 -4 35 -6 35 -1 0 -3 16 -5 35 -1 19 -5 44 -7 55 -2 11 -7 41 -11 66 -4
25 -9 57 -11 70 -2 13 -7 51 -11 84 -3 33 -8 74 -10 90 -2 17 -6 46 -8 65 -3
19 -6 35 -7 35 -2 0 -9 60 -12 108 -1 15 -4 27 -7 27 -4 0 -6 15 -6 33 0 17
-6 57 -12 87 -6 30 -11 62 -11 70 -1 18 -8 63 -16 110 -14 76 -17 98 -20 170
-1 41 0 79 3 85 3 5 7 17 7 27 4 50 92 125 156 132 14 1 29 5 34 8 6 3 23 8
40 12 37 9 55 23 66 55 7 16 6 27 -1 31 -6 4 -8 13 -5 21 4 12 50 14 283 11
152 -1 315 1 362 5 47 5 130 7 185 6 55 -1 111 -2 125 -3z m3323 -227 c150
-125 301 -252 337 -283 36 -30 88 -73 115 -95 27 -22 62 -52 79 -66 17 -14 44
-37 60 -50 16 -13 34 -29 40 -34 6 -6 63 -53 126 -105 134 -111 140 -116 140
-127 0 -5 -21 -31 -46 -58 -25 -27 -66 -74 -92 -105 -26 -30 -69 -80 -97 -110
-27 -31 -80 -89 -116 -130 -252 -285 -336 -379 -363 -410 -18 -19 -54 -60 -81
-90 -102 -117 -170 -194 -180 -204 -6 -6 -78 -87 -160 -181 -82 -93 -154 -175
-160 -181 -25 -28 -91 -102 -230 -258 -38 -44 -79 -89 -90 -102 -11 -12 -58
-65 -105 -118 -46 -53 -90 -96 -97 -96 -14 0 -18 22 -6 34 4 4 8 13 8 19 0 15
24 117 32 137 4 8 5 19 4 24 -1 5 1 16 5 25 3 9 8 27 9 41 2 14 6 43 10 65 13
78 12 318 -2 364 -7 24 -11 46 -9 48 9 9 -66 145 -100 183 -20 22 -62 55 -93
74 -54 33 -167 75 -210 79 -12 1 -21 4 -21 7 0 3 -10 6 -22 6 -13 1 -45 5 -73
8 -27 4 -58 7 -68 7 -26 0 -19 44 8 45 11 0 31 4 45 8 14 4 36 8 50 10 14 1
41 8 60 14 19 7 49 13 65 16 17 2 42 8 57 14 15 6 38 13 50 15 13 2 34 9 48
14 14 6 49 20 77 32 346 137 592 407 718 786 14 44 29 87 32 95 4 8 5 19 4 24
-1 4 3 14 9 20 5 7 7 16 4 19 -3 3 -2 11 2 18 4 7 9 27 11 44 1 16 6 41 9 55
4 14 8 45 9 70 1 25 5 53 10 63 4 10 4 43 1 75 -4 31 -8 71 -9 87 -2 17 -7 36
-11 43 -4 7 -5 19 -2 27 3 8 1 17 -4 20 -6 4 -10 13 -10 22 0 34 -65 147 -117
203 l-54 59 43 4 c24 2 51 4 61 5 11 1 130 -91 290 -225z m-6208 133 c22 -10
47 -20 55 -21 31 -4 182 -56 218 -74 126 -65 176 -135 241 -338 62 -197 164
-533 166 -553 1 -8 8 -28 14 -45 7 -16 14 -39 15 -50 2 -11 9 -33 15 -50 7
-16 14 -39 15 -50 2 -11 8 -33 15 -48 6 -15 10 -31 9 -35 -1 -4 4 -20 10 -35
7 -15 11 -31 10 -35 -1 -4 4 -20 11 -36 6 -16 9 -31 6 -34 -2 -3 -1 -10 4 -16
5 -6 19 -45 30 -86 21 -81 82 -293 107 -376 8 -29 16 -62 18 -76 1 -13 5 -29
9 -34 6 -10 26 -90 32 -124 1 -8 5 -22 8 -30 11 -27 36 -122 35 -128 -1 -4 2
-14 5 -22 10 -25 37 -121 35 -128 -1 -4 2 -14 5 -22 6 -13 143 -550 151 -590
1 -8 8 -33 14 -56 7 -22 13 -53 16 -70 2 -16 6 -36 9 -44 7 -20 30 -121 32
-140 0 -9 4 -21 9 -28 4 -6 4 -16 1 -22 -3 -5 -1 -10 6 -10 7 0 10 -2 7 -5 -2
-3 3 -37 13 -77 10 -39 16 -75 13 -80 -3 -4 0 -8 5 -8 6 0 10 -3 9 -7 -1 -5 2
-26 7 -48 5 -22 9 -47 10 -55 1 -8 5 -22 8 -30 11 -29 25 -114 21 -122 -3 -4
-1 -8 3 -8 5 0 9 -19 8 -42 0 -27 -5 -43 -12 -43 -7 0 -38 29 -69 65 -31 36
-75 85 -98 110 -22 25 -106 119 -186 210 -80 91 -149 170 -155 176 -16 17
-146 163 -199 223 -27 31 -63 72 -80 91 -17 19 -63 71 -101 115 -39 44 -79 89
-90 100 -17 18 -61 68 -148 169 -10 12 -33 37 -50 56 -18 20 -48 53 -67 76
-40 45 -124 141 -261 294 -122 137 -217 244 -239 270 -18 20 -136 153 -155
174 -5 6 -39 45 -75 86 -36 41 -70 80 -76 85 -10 10 -127 143 -189 214 -16 20
-42 48 -56 62 -14 15 -38 42 -54 61 -15 18 -56 65 -90 103 -173 194 -205 230
-205 235 0 3 46 44 103 92 56 47 179 150 273 229 94 79 193 162 219 184 27 22
53 45 59 50 6 6 70 59 141 119 72 60 153 128 180 151 146 124 181 152 195 151
8 -1 33 -10 55 -20z m4781 -84 c63 -32 120 -111 128 -177 1 -12 5 -25 9 -31
19 -32 11 -365 -12 -467 -6 -26 -14 -64 -17 -85 -3 -20 -10 -42 -15 -48 -5 -6
-6 -14 -3 -17 11 -11 -91 -326 -148 -457 -69 -157 -136 -269 -194 -326 -38
-36 -120 -78 -140 -70 -7 3 -16 1 -19 -4 -3 -4 -31 -7 -63 -6 -59 2 -121 27
-123 49 0 6 -3 21 -6 32 -7 31 -2 150 7 150 1 0 3 16 4 35 4 41 14 96 23 125
7 22 13 51 14 75 1 8 5 34 10 58 5 23 12 59 15 80 3 20 8 44 11 52 7 19 11 35
17 86 3 22 13 72 21 110 9 38 16 79 16 91 0 12 4 25 9 28 6 4 8 10 6 14 -3 4
4 50 15 102 25 121 28 138 33 174 7 48 26 149 33 165 3 8 7 27 9 42 12 93 80
198 147 228 54 24 158 20 213 -8z m-448 -1994 c6 -6 12 -8 12 -4 0 4 12 -2 27
-11 83 -53 109 -136 107 -338 -2 -130 -4 -162 -19 -285 -3 -25 -5 -56 -5 -69
0 -12 -3 -28 -7 -35 -4 -6 -8 -22 -9 -36 -1 -14 -2 -25 -3 -25 -1 0 -4 -13 -6
-30 -9 -69 -28 -161 -36 -171 -5 -6 -7 -13 -4 -15 2 -3 -1 -23 -7 -45 -6 -21
-12 -43 -13 -49 -4 -37 -19 -86 -26 -91 -5 -3 -7 -9 -5 -13 8 -13 -74 -269
-113 -356 -52 -113 -70 -149 -108 -207 -80 -122 -182 -188 -240 -157 -43 23
-56 64 -56 174 0 86 8 200 13 200 0 0 3 18 5 40 5 46 12 90 21 125 3 14 7 39
9 55 1 17 4 30 5 30 2 0 6 27 15 100 3 28 8 57 12 65 3 8 7 26 8 40 1 14 4 27
5 30 1 3 2 8 1 12 0 4 6 40 14 80 9 40 17 87 19 103 2 17 5 30 6 30 1 0 3 15
5 34 2 19 7 46 11 60 4 14 8 37 9 51 1 14 4 27 5 30 1 3 2 8 1 12 0 4 6 40 14
80 9 40 17 87 19 103 2 17 5 32 6 35 1 3 2 8 1 13 -1 4 4 26 9 50 11 42 13 56
25 137 3 24 9 49 13 54 3 6 7 20 8 32 4 36 44 121 68 143 38 36 149 48 184 19z
m-492 -2221 c77 -2 146 -7 152 -11 7 -4 25 -6 40 -4 15 2 27 -2 27 -8 0 -6
-44 -60 -97 -120 -106 -120 -109 -123 -188 -214 -30 -35 -64 -73 -75 -84 -11
-12 -51 -57 -90 -101 -38 -44 -84 -96 -101 -115 -17 -19 -71 -80 -120 -135
-49 -55 -91 -102 -94 -105 -3 -3 -32 -36 -65 -75 -33 -38 -63 -72 -66 -75 -3
-3 -29 -32 -59 -65 -29 -33 -85 -95 -123 -139 l-71 -78 -36 39 c-19 21 -64 71
-100 112 -36 41 -69 79 -75 85 -5 6 -41 47 -80 91 -38 44 -75 85 -81 90 -5 6
-57 64 -115 130 -57 66 -107 122 -110 125 -28 25 -549 622 -549 630 0 5 6 11
13 12 83 10 715 13 852 3 135 -9 505 -6 505 5 0 3 27 5 60 5 34 0 66 2 72 6
10 7 257 5 574 -4z"/>
</g>
</svg>
